<svg version="1" xmlns="http://www.w3.org/2000/svg" width="933.333" height="933.333" viewBox="0 0 700.000000 700.000000"><path d="M325.8 28.8c-10.9 11-134.9 133.9-202.2 200.5-16.5 16.4-51.1 50.7-76.8 76.2L.2 351.9l17.1 17c9.5 9.3 23.3 22.9 30.7 30.1 7.4 7.3 30.1 29.5 50.3 49.4 20.3 19.8 42.8 41.9 50 49 7.3 7.1 29.8 29.1 50 49 20.3 19.8 42.3 41.5 49 48 6.7 6.5 29.7 29 51 50 21.4 21 39.1 38.2 39.5 38.4.4.1.7-40.8.7-90.9v-91.1l-32-31.5c-17.6-17.4-52-51.3-76.5-75.5L185.5 350l40-39.4c22-21.7 56.4-55.6 76.5-75.4l36.5-36v-91.1c0-50.1-.2-91.1-.5-91.1s-5.8 5.3-12.2 11.8zM361.9 17c-.1.3-.2 41.4-.3 91.3l-.1 90.9 48.3 47.6c26.6 26.3 61 60.2 76.5 75.4l28.2 27.8-43.4 42.7c-23.9 23.6-58.3 57.5-76.5 75.5l-33.1 32.6v91.1c0 50.1.2 91.1.4 91.1s4.9-4.5 10.5-10.1c25.3-25.1 172.9-171.5 200.4-198.7 16.9-16.7 52.4-51.9 78.9-78.3l48.2-47.9-4.8-4.7c-13.2-13-80.9-79.3-91.9-90.2-7-6.8-29.8-29.1-50.7-49.6-20.9-20.5-44.1-43.2-51.5-50.5-7.4-7.3-31.3-30.6-53-52-21.7-21.3-44.2-43.3-50-49-5.8-5.6-16.2-15.9-23.2-22.8-7.1-7-12.9-12.5-12.9-12.2z"/></svg>